<svg width="22" height="15" viewBox="0 0 22 15" fill="none" xmlns="http://www.w3.org/2000/svg">
<path d="M1 6.5C0.447715 6.5 0 6.94772 0 7.5C0 8.05228 0.447715 8.5 1 8.5L1 6.5ZM21.7071 8.20711C22.0976 7.81658 22.0976 7.18342 21.7071 6.79289L15.3431 0.428932C14.9526 0.0384079 14.3195 0.0384079 13.9289 0.428932C13.5384 0.819456 13.5384 1.45262 13.9289 1.84315L19.5858 7.5L13.9289 13.1569C13.5384 13.5474 13.5384 14.1805 13.9289 14.5711C14.3195 14.9616 14.9526 14.9616 15.3431 14.5711L21.7071 8.20711ZM1 8.5L21 8.5L21 6.5L1 6.5L1 8.5Z" fill="#FFB7C5"/>
</svg>
