<svg width="13" height="83" viewBox="0 0 13 83" fill="none" xmlns="http://www.w3.org/2000/svg">
<path d="M9.29508 1.004L7.96908 1.563C8.46308 2.252 8.72308 2.772 9.12608 3.643L10.4911 3.058C10.2051 2.486 9.67208 1.589 9.29508 1.004ZM11.0371 0.289001L9.72408 0.887002C10.2181 1.563 10.5041 2.031 10.9461 2.902L12.2721 2.265C11.9861 1.706 11.4271 0.835001 11.0371 0.289001ZM0.455078 6.178L2.28808 8.05C2.52208 7.686 2.84708 7.205 3.14608 6.75C3.62708 6.074 4.45908 4.878 4.90108 4.293C5.22608 3.877 5.48608 3.89 5.87608 4.228C6.29208 4.605 7.39708 5.814 8.13808 6.711C8.85308 7.569 9.99708 9.051 10.7771 10.039L12.4541 8.232C11.5441 7.192 10.1401 5.697 9.29508 4.787C8.51508 3.942 7.60508 2.98 6.70808 2.226C5.59008 1.277 4.81008 1.368 4.00408 2.317C3.08108 3.422 2.15808 4.579 1.59908 5.138C1.17008 5.554 0.871078 5.853 0.455078 6.178Z" fill="#FFB7C5"/>
<path d="M10.3351 21.006C10.1271 21.097 9.75008 21.162 9.25608 21.162H3.19808C2.76908 21.162 2.17108 21.123 1.57308 21.071V23.06C2.15808 23.008 2.87308 22.995 3.19808 22.995H8.99608C8.77508 23.58 8.43708 24.217 7.81308 24.841C6.89008 25.764 5.40808 26.596 3.43208 27.025L4.96608 28.767C6.60408 28.299 8.25508 27.363 9.51608 25.946C10.4651 24.893 10.9981 23.697 11.4141 22.475C11.4661 22.319 11.5961 22.059 11.7001 21.864L10.3351 21.006ZM2.78208 19.953C3.15908 19.914 3.77008 19.901 4.19908 19.901H9.00908C9.49008 19.901 10.1791 19.927 10.5301 19.953V17.964C10.1661 18.016 9.43808 18.042 9.03508 18.042H4.19908C3.75708 18.042 3.13308 18.016 2.78208 17.964V19.953Z" fill="#FFB7C5"/>
<path d="M2.50908 46.598C3.61408 45.597 4.39408 44.336 4.78408 42.854C5.10908 41.567 5.14808 39.032 5.14808 37.472C5.14808 36.861 5.25208 36.185 5.25208 36.185H2.99008C3.08108 36.523 3.13308 36.9 3.13308 37.498C3.13308 39.084 3.12008 41.307 2.75608 42.347C2.43108 43.348 1.85908 44.44 0.689078 45.233L2.50908 46.598ZM7.83908 46.663C8.02108 46.533 8.16408 46.403 8.45008 46.247C9.86708 45.519 11.7261 44.102 12.7531 42.789L11.5701 41.086C10.7901 42.204 9.69808 43.127 8.74908 43.517V37.381C8.74908 36.757 8.85308 36.185 8.85308 36.185H6.55208C6.55208 36.185 6.66908 36.744 6.66908 37.368V44.557C6.66908 44.947 6.61708 45.337 6.55208 45.61L7.83908 46.663Z" fill="#FFB7C5"/>
<path d="M7.59208 64.104C7.46208 63.181 7.46208 61.92 7.46208 61.556C7.46208 60.516 7.47508 56.928 7.47508 55.667C7.47508 55.173 7.47508 54.354 7.60508 53.691H5.09608C5.22608 54.354 5.22608 55.186 5.22608 55.68C5.22608 56.928 5.21308 60.529 5.21308 61.556C5.21308 62.089 5.21308 63.181 5.08308 64.104H7.59208Z" fill="#FFB7C5"/>
<path d="M4.12108 71.652L2.99008 73.355C3.88708 73.849 5.18708 74.681 5.95408 75.188L7.09808 73.485C6.37008 72.978 5.00508 72.133 4.12108 71.652ZM1.50808 80.648L2.66508 82.689C3.75708 82.507 5.62908 81.844 6.92908 81.129C9.04808 79.92 10.8681 78.321 12.0901 76.527L10.9071 74.408C9.90608 76.241 8.07308 78.035 5.87608 79.257C4.43308 80.024 2.95108 80.414 1.50808 80.648ZM2.13208 74.577L1.01408 76.28C1.91108 76.761 3.19808 77.606 3.97808 78.139L5.10908 76.41C4.39408 75.916 3.04208 75.058 2.13208 74.577Z" fill="#FFB7C5"/>
</svg>
