<svg width="158" height="17" viewBox="0 0 158 17" fill="none" xmlns="http://www.w3.org/2000/svg">
<path d="M6.78546 6.87986H9.50972C9.50972 3.6187 7.93879 1.57054 4.83671 1.57054C2.09257 1.57054 0.183594 3.55905 0.183594 6.40262V11.2148C0.183594 14.0783 2.09257 16.0668 4.83671 16.0668C7.99845 16.0668 9.50972 14.1777 9.50972 10.5984H6.78546V10.7774C6.78546 12.8255 6.10936 13.442 4.83671 13.442C3.90211 13.442 2.90786 12.9448 2.90786 11.2944V6.32308C2.90786 4.71239 3.90211 4.19537 4.83671 4.19537C5.7912 4.19537 6.78546 4.61296 6.78546 6.68101V6.87986Z" fill="#222F3E"/>
<path d="M14.4004 16.027C16.031 16.027 16.886 14.993 17.0451 14.6152V15.8481H19.4711V4.67262H17.0451V5.92538C16.886 5.56745 16.031 4.53342 14.4004 4.53342C12.4516 4.53342 11.0994 5.7663 11.0994 8.64964V11.8909C11.0994 14.7544 12.4119 16.027 14.4004 16.027ZM15.2952 13.7005C14.3407 13.7005 13.7044 13.084 13.7044 11.6921V8.84849C13.7044 7.47642 14.3407 6.85998 15.2952 6.85998C16.2099 6.85998 16.886 7.45653 16.886 8.80872V11.6921C16.886 13.0641 16.2497 13.7005 15.2952 13.7005Z" fill="#222F3E"/>
<path d="M27.1217 4.55331C25.8491 4.39422 24.4969 4.95101 24.1787 6.18389V4.67262H21.7527V15.8481H24.3378V9.70355C24.3378 7.91389 25.1332 6.95941 27.1217 7.11849V4.55331Z" fill="#222F3E"/>
<path d="M33.9841 12.2687V12.5074C33.9841 13.4221 33.2682 13.9192 32.3933 13.9192C31.578 13.9192 30.7826 13.2431 30.7826 12.2489V11.0359H36.5692V8.84849C36.5692 6.10434 35.0181 4.53342 32.3933 4.53342C29.7287 4.53342 28.1975 6.22366 28.1975 8.94792V11.6722C28.1975 14.3567 29.7287 16.0469 32.3933 16.0469C35.0181 16.0469 36.5692 14.3964 36.5692 12.3483V12.2687H33.9841ZM30.7826 8.39114C30.7826 7.19803 31.4786 6.68101 32.3933 6.68101C33.3677 6.68101 33.9841 7.17814 33.9841 8.66953V9.20642H30.7826V8.39114Z" fill="#222F3E"/>
<path d="M43.9508 12.2687V12.5074C43.9508 13.4221 43.2349 13.9192 42.3599 13.9192C41.5447 13.9192 40.7493 13.2431 40.7493 12.2489V11.0359H46.5358V8.84849C46.5358 6.10434 44.9848 4.53342 42.3599 4.53342C39.6953 4.53342 38.1642 6.22366 38.1642 8.94792V11.6722C38.1642 14.3567 39.6953 16.0469 42.3599 16.0469C44.9848 16.0469 46.5358 14.3964 46.5358 12.3483V12.2687H43.9508ZM40.7493 8.39114C40.7493 7.19803 41.4452 6.68101 42.3599 6.68101C43.3343 6.68101 43.9508 7.17814 43.9508 8.66953V9.20642H40.7493V8.39114Z" fill="#222F3E"/>
<path d="M53.7981 4.55331C52.5254 4.39422 51.1733 4.95101 50.8551 6.18389V4.67262H48.4291V15.8481H51.0142V9.70355C51.0142 7.91389 51.8096 6.95941 53.7981 7.11849V4.55331Z" fill="#222F3E"/>
<path d="M66.6094 6.87986H69.3337C69.3337 3.6187 67.7627 1.57054 64.6607 1.57054C61.9165 1.57054 60.0075 3.55905 60.0075 6.40262V11.2148C60.0075 14.0783 61.9165 16.0668 64.6607 16.0668C67.8224 16.0668 69.3337 14.1777 69.3337 10.5984H66.6094V10.7774C66.6094 12.8255 65.9333 13.442 64.6607 13.442C63.7261 13.442 62.7318 12.9448 62.7318 11.2944V6.32308C62.7318 4.71239 63.7261 4.19537 64.6607 4.19537C65.6151 4.19537 66.6094 4.61296 66.6094 6.68101V6.87986Z" fill="#222F3E"/>
<path d="M75.0993 16.0469C77.7042 16.0469 79.2751 14.3567 79.2751 11.6125V8.92803C79.2751 6.28331 77.7042 4.55331 75.0993 4.55331C72.4148 4.55331 70.9035 6.28331 70.9035 8.92803V11.6125C70.9035 14.3567 72.4148 16.0469 75.0993 16.0469ZM75.0993 6.89975C75.9742 6.89975 76.6901 7.41676 76.6901 8.60987V11.9903C76.6901 13.1835 75.9543 13.7203 75.0993 13.7203C74.1845 13.7203 73.4886 13.1835 73.4886 11.9903V8.60987C73.4886 7.41676 74.1845 6.89975 75.0993 6.89975Z" fill="#222F3E"/>
<path d="M83.851 8.88826C83.851 7.45653 84.3879 6.87986 85.4419 6.87986C86.456 6.87986 87.0526 7.47642 87.0526 8.84849V15.8481H89.6575V8.64964C89.6575 5.80607 88.3451 4.55331 86.3367 4.55331C84.726 4.55331 83.851 5.58733 83.692 5.94526V4.67262H81.266V15.8481H83.851V8.88826Z" fill="#222F3E"/>
<path d="M95.4167 4.47376C92.951 4.47376 91.4795 5.72653 91.4795 7.7747C91.4795 11.712 97.107 10.7575 97.107 12.7062C97.107 13.3425 96.5303 13.8993 95.536 13.8993C94.5418 13.8993 93.806 13.3823 93.806 12.1494H91.221C91.221 14.6351 92.8714 16.1066 95.536 16.1066C98.2404 16.1066 99.7119 14.8936 99.7119 12.7261C99.7119 8.84849 94.0248 9.86263 94.0248 7.7747C94.0248 7.0986 94.5418 6.7009 95.4366 6.7009C96.3911 6.7009 97.0672 7.03895 97.0672 8.29171H99.5926C99.5926 5.74641 98.1012 4.47376 95.4167 4.47376Z" fill="#222F3E"/>
<path d="M107.175 12.1097C107.175 13.2829 106.221 13.7203 105.585 13.7203C104.849 13.7203 103.974 13.263 103.974 12.1097V4.67262H101.389V11.7318C101.389 14.3766 102.94 16.0469 105.585 16.0469C108.15 16.0469 109.78 14.3766 109.78 11.7318V4.67262H107.175V12.1097Z" fill="#222F3E"/>
<path d="M114.55 0.834785H111.945V15.8481H114.55V0.834785Z" fill="#222F3E"/>
<path d="M119.96 16.027C121.591 16.027 122.446 14.993 122.605 14.6152V15.8481H125.031V4.67262H122.605V5.92538C122.446 5.56745 121.591 4.53342 119.96 4.53342C118.011 4.53342 116.659 5.7663 116.659 8.64964V11.8909C116.659 14.7544 117.972 16.027 119.96 16.027ZM120.855 13.7005C119.9 13.7005 119.264 13.084 119.264 11.6921V8.84849C119.264 7.47642 119.9 6.85998 120.855 6.85998C121.77 6.85998 122.446 7.45653 122.446 8.80872V11.6921C122.446 13.0641 121.809 13.7005 120.855 13.7005Z" fill="#222F3E"/>
<path d="M126.736 6.97929H127.81V11.712C127.81 14.4362 128.545 16.0071 131.548 16.0071C131.846 16.0071 132.145 15.9873 132.483 15.9475V13.6209C132.244 13.6607 132.025 13.6607 131.846 13.6607C130.594 13.6607 130.395 13.0443 130.395 11.7716V6.97929H132.443V4.6925H130.395V2.40571H128.665C128.665 4.25503 128.168 4.87147 126.716 4.87147C126.716 5.58733 126.736 6.26343 126.736 6.97929Z" fill="#222F3E"/>
<path d="M137.05 4.67262H134.465V15.8481H137.05V4.67262ZM137.348 1.7495C137.348 0.874556 136.652 0.158691 135.777 0.158691C134.902 0.158691 134.206 0.874556 134.206 1.7495C134.206 2.62445 134.902 3.32043 135.777 3.32043C136.652 3.32043 137.348 2.62445 137.348 1.7495Z" fill="#222F3E"/>
<path d="M143.336 16.0469C145.941 16.0469 147.512 14.3567 147.512 11.6125V8.92803C147.512 6.28331 145.941 4.55331 143.336 4.55331C140.652 4.55331 139.141 6.28331 139.141 8.92803V11.6125C139.141 14.3567 140.652 16.0469 143.336 16.0469ZM143.336 6.89975C144.211 6.89975 144.927 7.41676 144.927 8.60987V11.9903C144.927 13.1835 144.191 13.7203 143.336 13.7203C142.422 13.7203 141.726 13.1835 141.726 11.9903V8.60987C141.726 7.41676 142.422 6.89975 143.336 6.89975Z" fill="#222F3E"/>
<path d="M152.088 8.88826C152.088 7.45653 152.625 6.87986 153.679 6.87986C154.693 6.87986 155.29 7.47642 155.29 8.84849V15.8481H157.895V8.64964C157.895 5.80607 156.582 4.55331 154.574 4.55331C152.963 4.55331 152.088 5.58733 151.929 5.94526V4.67262H149.503V15.8481H152.088V8.88826Z" fill="#222F3E"/>
</svg>
