<svg width="13" height="102" viewBox="0 0 13 102" fill="none" xmlns="http://www.w3.org/2000/svg">
<path d="M8.2679 4.60402C9.5159 3.79802 10.6469 2.83603 11.6869 1.82203L9.9969 0.301025C9.2559 1.28903 7.9169 2.44602 6.6039 3.26502C5.1479 4.17502 2.9639 5.12403 0.636898 5.60503L1.7549 7.51603C3.1719 7.13903 4.6929 6.52803 6.0059 5.87803V9.79103C6.0059 10.415 5.9539 11.325 5.9019 11.676H8.3979C8.2939 11.312 8.2679 10.415 8.2679 9.79103V4.60402Z" fill="#FFB7C5"/>
<path d="M3.2369 18.912L1.7419 20.511C2.6779 21.174 4.3159 22.604 5.0049 23.358L6.6169 21.707C5.8369 20.875 4.1339 19.523 3.2369 18.912ZM1.3129 27.544L2.6519 29.624C4.2899 29.364 5.9799 28.688 7.3059 27.908C9.4769 26.634 11.3229 24.827 12.3629 22.981L11.1409 20.758C10.2699 22.591 8.5149 24.606 6.1749 25.958C4.9009 26.699 3.2239 27.284 1.3129 27.544Z" fill="#FFB7C5"/>
<path d="M12.0509 38.316C11.7649 37.744 11.2319 36.964 10.8289 36.405L9.5419 37.003C10.0489 37.692 10.2959 38.056 10.7509 38.953L12.0509 38.316ZM10.2309 39.122C9.9449 38.537 9.4379 37.731 9.0479 37.146L7.7479 37.692C8.2549 38.407 8.4759 38.81 8.8919 39.707L10.2309 39.122ZM5.6939 38.472C5.6939 37.848 5.7719 37.276 5.8239 36.782H3.3669C3.4709 37.276 3.5229 37.952 3.5229 38.472V45.895C3.5229 46.428 3.4579 47.299 3.3669 47.858H5.8369C5.7719 47.273 5.6939 46.246 5.6939 45.895V42.554C7.0719 43.048 8.8529 43.737 10.1659 44.413L11.0629 42.216C9.9709 41.683 7.4489 40.76 5.6939 40.253V38.472Z" fill="#FFB7C5"/>
<path d="M7.5659 60.892C8.5799 60.112 9.5159 59.189 10.1919 58.435C10.5039 58.084 10.9719 57.577 11.3489 57.187L10.0489 55.926C9.6979 56.017 9.2819 56.069 8.8269 56.069H7.5919V55.497C7.5919 55.068 7.6439 54.587 7.6829 54.262H5.4469C5.4989 54.6 5.5249 55.055 5.5249 55.497V56.069H3.4449C2.9899 56.069 2.2619 56.056 1.7289 55.978V58.019C2.1449 57.98 3.0029 57.954 3.4839 57.954H7.7999C7.4489 58.448 6.7729 59.059 5.8629 59.644C4.7709 60.346 3.0809 61.269 0.545898 61.802L1.7549 63.661C2.9899 63.284 4.3419 62.764 5.5119 62.179V64.064C5.5119 64.61 5.4599 65.494 5.4079 65.845H7.6569C7.6179 65.442 7.5659 64.61 7.5659 64.064V60.892ZM8.2159 61.659C9.2819 62.283 10.1789 62.842 11.3099 63.765L12.6229 62.023C11.3489 61.152 10.6859 60.788 9.5029 60.151L8.2159 61.659Z" fill="#FFB7C5"/>
<path d="M4.0689 72.535L2.9249 74.277C3.8349 74.784 5.1609 75.629 5.9409 76.149L7.1109 74.407C6.3699 73.9 4.9789 73.029 4.0689 72.535ZM1.4039 81.726L2.5869 83.806C3.7049 83.624 5.6159 82.948 6.9419 82.207C9.0999 80.972 10.9589 79.347 12.2069 77.514L10.9979 75.356C9.9709 77.228 8.0989 79.061 5.8629 80.296C4.3939 81.089 2.8729 81.479 1.4039 81.726ZM2.0409 75.525L0.896898 77.267C1.8199 77.761 3.1329 78.619 3.9259 79.165L5.0829 77.397C4.3549 76.89 2.9769 76.019 2.0409 75.525Z" fill="#FFB7C5"/>
<path d="M4.9399 93.967C5.0179 94.435 5.0439 94.812 5.0439 95.267C5.0439 97.386 4.7189 98.491 3.2759 99.583C2.7299 99.999 2.2489 100.22 1.7939 100.376L3.6269 101.871C7.2929 99.83 7.2279 97.022 7.2279 93.967H4.9399ZM11.3359 91.042C11.0629 91.12 10.2049 91.172 9.7759 91.172H3.0289C2.4569 91.172 1.9109 91.107 1.3779 91.029V93.2C2.0539 93.135 2.4569 93.096 3.0289 93.096H9.4509C9.1649 93.642 8.2679 94.63 7.3059 95.241L8.9309 96.541C10.1009 95.696 11.3359 94.071 11.9989 92.979C12.1289 92.771 12.4279 92.394 12.5839 92.199L11.3359 91.042Z" fill="#FFB7C5"/>
</svg>
