<svg width="155" height="30" viewBox="0 0 155 30" fill="none" xmlns="http://www.w3.org/2000/svg">
<path d="M26.0663 6.6153C25.4101 6.51587 24.6306 6.69882 23.8232 7.13231C23.8033 7.14425 23.7874 7.15618 23.7715 7.17208C22.4034 7.90783 21.0433 9.27195 20.5064 10.8747C19.8542 12.8354 19.9218 13.9171 19.9417 14.0921V18.4509C19.9417 18.5066 19.9576 18.5583 19.9814 18.606C19.9973 18.6299 20.0212 18.6498 20.0451 18.6697C20.061 18.6856 20.0729 18.7094 20.0928 18.7214C20.1405 18.7492 20.1962 18.7651 20.2479 18.7651C20.2996 18.7651 20.3513 18.7532 20.399 18.7253C20.403 18.7253 20.403 18.7214 20.407 18.7214C20.5143 18.6617 22.6659 17.4686 24.1255 16.6016C24.7459 16.2317 26.5236 15.0545 27.4622 13.2211C27.4702 13.2092 27.4741 13.1973 27.4821 13.1853C27.494 13.1575 27.506 13.1297 27.5179 13.1058C27.7167 12.7001 27.8758 12.2627 27.9673 11.7974C28.3212 10.0236 28.1542 8.42485 27.5219 7.52206C27.1679 7.00903 26.6787 6.70677 26.0663 6.6153ZM23.6721 7.95158C23.6443 9.10094 23.2784 11.9087 20.5621 13.5473C20.5899 13.07 20.7052 12.2388 21.095 11.0696C21.4927 9.88044 22.5426 8.69131 23.6721 7.95158ZM23.8113 16.0607C23.3142 16.355 22.1966 16.9953 20.5621 17.918V14.2631C24.1772 12.3184 24.3164 8.55211 24.2885 7.59763C24.3243 7.58172 24.3601 7.56183 24.3959 7.54195C24.4079 7.53797 24.4198 7.53399 24.4317 7.52604C24.6107 7.44252 24.7896 7.37889 24.9646 7.32719C25.0124 7.31526 25.0601 7.29935 25.1038 7.28742C25.1675 7.27151 25.2351 7.25958 25.2987 7.24765C25.3703 7.23572 25.4379 7.22776 25.5055 7.21981C25.5532 7.21583 25.601 7.21185 25.6487 7.20788C25.76 7.2039 25.8714 7.20788 25.9748 7.22379C26.1975 7.2556 26.3924 7.32719 26.5674 7.43457C26.7424 7.54195 26.8895 7.68512 27.0208 7.86806C27.5577 8.63165 27.6889 10.0515 27.3668 11.6621C26.9452 13.766 25.0879 15.2295 24.1533 15.846C24.0141 15.9374 23.8988 16.009 23.8113 16.0607Z" fill="#222F3E"/>
<path d="M30.5244 4.19308C30.0153 3.51301 29.379 3.00793 28.6592 2.67386C28.6512 2.66988 28.6432 2.66193 28.6353 2.65397L24.4077 0.303551C24.3918 0.295597 24.3759 0.287643 24.36 0.283666C24.2447 0.239919 21.4568 -0.722522 18.8956 1.16657C16.3582 3.03577 15.2248 4.63055 14.1231 6.75429C12.5641 9.76092 12.3176 11.9841 12.0789 14.1356C11.9039 15.7105 11.7409 17.2019 11.0608 18.916C10.7347 19.7353 9.72453 21.2625 8.47177 22.1454C8.46779 21.867 8.48768 21.4812 8.5712 21.0119C8.59506 20.8807 8.53143 20.7494 8.41609 20.6858L4.53849 18.5303C4.53452 18.5263 4.53054 18.5303 4.52258 18.5263C4.48281 18.5064 4.43907 18.4945 4.39532 18.4905C4.39134 18.4905 4.39134 18.4905 4.38737 18.4905C4.34362 18.4905 4.30385 18.4984 4.26408 18.5183C4.2601 18.5183 4.25612 18.5183 4.25215 18.5223C4.24817 18.5223 4.24817 18.5263 4.24817 18.5263C4.24419 18.5303 4.24022 18.5303 4.23226 18.5303L0.155811 20.8926C0.0524081 20.9523 -0.00724729 21.0676 0.000706762 21.1869C0.00468379 21.2426 0.120018 22.5789 0.700663 24.0424C1.48811 26.023 2.75281 27.2718 4.3635 27.6575C4.39134 27.6655 4.42714 27.6695 4.45498 27.6774L4.80495 27.7967C4.81688 27.8007 4.83279 27.8047 4.84472 27.8087L16.0122 29.996C16.0321 30 16.052 30 16.0719 30C16.1196 30 16.1673 29.9841 16.2071 29.9642C16.2111 29.9602 16.219 29.9642 16.223 29.9602L20.3989 27.5581C20.4943 27.5024 20.554 27.399 20.554 27.2877V23.1714C22.0732 22.2965 23.6998 21.3579 24.9327 20.65C28.2336 18.741 29.904 16.9275 31.3118 13.7061C32.6919 10.5603 32.3657 6.65088 30.5244 4.19308ZM7.86726 22.5113C7.85931 22.5152 7.85135 22.5192 7.8434 22.5232C7.72409 22.5789 7.60478 22.6266 7.48945 22.6703C7.46956 22.6783 7.4457 22.6863 7.42581 22.6942C7.14344 22.7857 6.86505 22.8294 6.59859 22.8254C6.46337 22.8215 6.33213 22.8095 6.19691 22.7817C6.08158 22.7578 5.9742 22.722 5.87477 22.6783C5.84296 22.6664 5.81512 22.6505 5.78728 22.6346C5.71967 22.5988 5.65604 22.563 5.59638 22.5192C5.56854 22.4993 5.5407 22.4794 5.51286 22.4596C5.45321 22.4118 5.39753 22.3562 5.34185 22.3005C5.32594 22.2806 5.30606 22.2647 5.29015 22.2488C5.22254 22.1732 5.16289 22.0897 5.11118 22.0022C5.09925 21.9823 5.08732 21.9624 5.07539 21.9386C5.03562 21.867 4.99585 21.7954 4.96403 21.7238C4.94813 21.692 4.9362 21.6602 4.92426 21.6284C4.89642 21.5608 4.87256 21.4892 4.8487 21.4176C4.83677 21.3858 4.82882 21.3539 4.81688 21.3221C4.78905 21.2307 4.76518 21.1352 4.7453 21.0437C4.74132 21.0318 4.74132 21.0239 4.73734 21.0119C4.71746 20.9085 4.69757 20.8011 4.68564 20.6977C4.68167 20.6659 4.67769 20.6341 4.67371 20.6023C4.66576 20.5267 4.6578 20.4551 4.64985 20.3796C4.64587 20.3438 4.64587 20.312 4.6419 20.2762C4.63792 20.2006 4.63394 20.129 4.63394 20.0574C4.63394 20.0296 4.62996 20.0057 4.62996 19.9779C4.62996 19.8824 4.62996 19.791 4.62996 19.7035C4.62996 19.6836 4.62996 19.6677 4.62996 19.6478C4.62996 19.5802 4.63394 19.5126 4.63792 19.4529C4.63792 19.4251 4.6419 19.3973 4.6419 19.3734C4.6419 19.3495 4.64587 19.3296 4.64587 19.3058L7.92294 21.1273C7.83147 21.7596 7.8434 22.2448 7.86726 22.5113ZM6.90085 27.061C6.89687 27.061 6.89289 27.065 6.88891 27.065C6.79744 27.0848 6.70995 27.1007 6.62643 27.1167C6.62245 27.1167 6.61848 27.1167 6.6145 27.1206C6.52701 27.1365 6.44349 27.1485 6.35997 27.1564C6.35599 27.1564 6.35202 27.1564 6.35202 27.1564C6.2685 27.1644 6.18896 27.1723 6.10942 27.1803C6.10544 27.1803 6.10146 27.1803 6.09749 27.1803C6.02192 27.1843 5.94636 27.1882 5.8708 27.1922C5.86284 27.1922 5.85489 27.1922 5.85091 27.1922C5.77932 27.1922 5.71171 27.1962 5.64411 27.1922C5.63217 27.1922 5.62422 27.1922 5.61229 27.1922C5.54866 27.1922 5.48502 27.1882 5.42537 27.1843C5.40946 27.1843 5.39753 27.1843 5.38162 27.1803C5.32594 27.1763 5.27027 27.1723 5.21856 27.1684C5.19868 27.1684 5.18277 27.1644 5.16289 27.1644C5.11516 27.1604 5.06744 27.1525 5.01971 27.1485C4.99983 27.1445 4.97597 27.1445 4.95608 27.1405C4.91233 27.1326 4.87256 27.1286 4.83279 27.1206C4.80893 27.1167 4.78507 27.1127 4.76121 27.1087C4.72541 27.1008 4.68962 27.0968 4.65383 27.0888C4.6061 27.0809 4.56235 27.0689 4.51861 27.057C1.47618 26.3332 0.768273 22.2687 0.648962 21.3301L4.02546 19.3774C3.96978 20.2881 4.02546 21.9585 5.0038 22.8493L5.00778 22.8533C5.09528 22.9328 5.19072 23.0084 5.2981 23.072C5.31004 23.08 5.32197 23.0879 5.3339 23.0959C5.42537 23.1516 5.52877 23.2033 5.63217 23.247C5.65206 23.255 5.66797 23.2629 5.68388 23.2709C5.80319 23.3186 5.93045 23.3584 6.06567 23.3862C6.19294 23.414 6.3202 23.426 6.44746 23.4379C6.47928 23.4419 6.50712 23.4419 6.53894 23.4419C6.57473 23.4419 6.60655 23.4459 6.64234 23.4459C6.69802 23.4459 6.74972 23.4379 6.8054 23.4339C6.86505 23.43 6.92869 23.426 6.98834 23.422C7.07186 23.414 7.15538 23.3942 7.23492 23.3783C7.29855 23.3663 7.3582 23.3544 7.42184 23.3385C7.50138 23.3186 7.58092 23.2908 7.66046 23.2629C7.72807 23.2391 7.79568 23.2192 7.86329 23.1913C7.93487 23.1635 8.01044 23.1237 8.08202 23.0919C8.15759 23.0561 8.23315 23.0203 8.30871 22.9806C8.32064 22.9726 8.33258 22.9686 8.34053 22.9646C8.34848 22.9607 8.35246 22.9527 8.36041 22.9487C8.778 22.7141 9.19957 22.4039 9.61318 22.0062C10.5915 21.0716 11.3273 19.8984 11.6256 19.1507C12.3374 17.357 12.5045 15.8259 12.6834 14.2072C12.926 12.1113 13.1647 9.94386 14.672 7.04063C15.7338 4.99644 16.8235 3.46529 19.2614 1.66767C21.4409 0.0609526 23.8748 0.780794 24.1293 0.860335L26.5513 2.20855C26.4837 2.20855 26.4161 2.21252 26.3485 2.21252C26.3246 2.21252 26.3008 2.21252 26.2729 2.21252C26.1258 2.2165 25.9747 2.22843 25.8235 2.24434C25.8076 2.24434 25.7957 2.24832 25.7798 2.24832C25.4537 2.28411 25.1196 2.34774 24.7855 2.43524C24.7378 2.44717 24.6901 2.46308 24.6424 2.47501C24.527 2.50682 24.4117 2.54262 24.2924 2.58239C24.2367 2.60227 24.177 2.62216 24.1214 2.64204C24.006 2.68579 23.8907 2.72954 23.7754 2.77726C23.7237 2.79715 23.6759 2.81703 23.6242 2.84089C23.4572 2.91248 23.2941 2.98804 23.1311 3.07554C21.3613 3.9823 20.033 5.33051 18.9234 6.81792C18.3587 7.57753 17.8496 8.36896 17.3763 9.16436C17.3326 9.23993 17.2888 9.31549 17.2451 9.39503C17.2133 9.45469 17.1815 9.51832 17.1496 9.58195C17.1417 9.59786 17.1337 9.61775 17.1218 9.63365C15.9446 12.0238 15.7815 15.6827 15.7656 16.148C15.7656 16.152 15.7656 16.156 15.7656 16.16C15.7656 16.1639 15.7656 16.1639 15.7656 16.1679C15.7656 16.1719 15.7617 16.1798 15.7617 16.1878C15.7577 16.2037 15.7537 16.2276 15.7497 16.2554C15.7497 16.2634 15.7458 16.2753 15.7458 16.2872C15.7418 16.319 15.7338 16.3548 15.7259 16.3906C15.7219 16.4065 15.7179 16.4224 15.7179 16.4383C15.71 16.4781 15.702 16.5219 15.6901 16.5696C15.6861 16.5895 15.6821 16.6133 15.6781 16.6332C15.6662 16.6849 15.6543 16.7366 15.6423 16.7923C15.6384 16.8162 15.6304 16.84 15.6264 16.8639C15.6145 16.9235 15.5986 16.9872 15.5827 17.0508C15.5747 17.0747 15.5708 17.1025 15.5628 17.1303C15.5469 17.198 15.527 17.2695 15.5111 17.3411C15.5032 17.369 15.4952 17.3968 15.4872 17.4286C15.4674 17.5002 15.4475 17.5758 15.4276 17.6513C15.4196 17.6832 15.4117 17.715 15.3998 17.7468C15.3799 17.8223 15.356 17.9019 15.3321 17.9814C15.3202 18.0172 15.3123 18.049 15.3003 18.0848C15.2765 18.1644 15.2486 18.2439 15.2248 18.3274C15.2128 18.3632 15.2009 18.399 15.189 18.4388C15.1611 18.5183 15.1333 18.5979 15.1054 18.6774C15.0895 18.7172 15.0776 18.7569 15.0617 18.7967C15.0339 18.8763 15.002 18.9518 14.9742 19.0314C14.9583 19.0711 14.9424 19.1149 14.9265 19.1547C14.8947 19.2342 14.8629 19.3098 14.831 19.3853C14.8151 19.4251 14.7952 19.4688 14.7793 19.5086C14.7435 19.5842 14.7077 19.6597 14.672 19.7353C14.6521 19.7751 14.6362 19.8148 14.6163 19.8546C14.5765 19.9341 14.5367 20.0137 14.493 20.0893C14.4771 20.1211 14.4572 20.1569 14.4413 20.1887C14.3816 20.2961 14.318 20.4034 14.2544 20.5029C14.1549 20.658 14.0515 20.821 13.9481 20.9881C12.8982 22.6544 11.4625 24.9372 8.74221 26.369C8.63085 26.4286 8.5195 26.4843 8.40814 26.536C8.34848 26.5639 8.28883 26.5877 8.22917 26.6156C8.18145 26.6354 8.13372 26.6593 8.086 26.6792C8.00646 26.711 7.9309 26.7388 7.85533 26.7707C7.82749 26.7826 7.79965 26.7945 7.77182 26.8025C7.68432 26.8343 7.6008 26.8621 7.51728 26.89C7.50138 26.8939 7.48547 26.9019 7.46956 26.9059C7.37809 26.9337 7.29059 26.9576 7.2031 26.9814C7.19515 26.9854 7.18719 26.9854 7.17526 26.9894C7.07981 27.0212 6.98834 27.0411 6.90085 27.061ZM7.21901 27.6217C7.34627 27.5899 7.47354 27.5581 7.60478 27.5144C7.62864 27.5064 7.6525 27.4985 7.67637 27.4905C7.78772 27.4547 7.89908 27.4149 8.01441 27.3752C8.05816 27.3593 8.10191 27.3433 8.14565 27.3274C8.24906 27.2877 8.35246 27.2439 8.45586 27.2002C8.49961 27.1803 8.53938 27.1644 8.58313 27.1445C8.7263 27.0769 8.87345 27.0093 9.0206 26.9297C11.1722 25.7963 12.5482 24.1856 13.5584 22.722C13.8964 22.2329 14.1907 21.7636 14.4651 21.3301C14.5686 21.1631 14.672 21.004 14.7714 20.8489C14.8668 20.6977 14.9543 20.5426 15.0418 20.3796C15.0657 20.3319 15.0895 20.2881 15.1134 20.2404C15.177 20.1171 15.2367 19.9898 15.2963 19.8626C15.3162 19.8188 15.3361 19.7751 15.356 19.7353C15.5071 19.3893 15.6384 19.0433 15.7537 18.7013C15.7577 18.6893 15.7617 18.6774 15.7656 18.6655V29.312L7.18719 27.6297C7.19515 27.6297 7.20708 27.6257 7.21901 27.6217ZM30.7471 13.4596C29.3989 16.5417 27.7961 18.2837 24.6264 20.1131C23.3538 20.8489 21.6556 21.8272 20.0926 22.726C19.9972 22.7817 19.9375 22.8851 19.9375 22.9965V27.1127L16.3861 29.1529V16.1997C16.3861 16.1957 16.3861 16.148 16.39 16.0685C16.4258 15.3208 16.6605 11.5625 17.9093 9.4865C18.0803 9.20413 18.2553 8.91779 18.4342 8.63542C19.691 6.65486 21.2022 4.76577 23.4174 3.62834C23.4214 3.62834 23.4254 3.62437 23.4254 3.62437C23.6282 3.52096 23.835 3.42552 24.0418 3.342C24.0577 3.33404 24.0736 3.33007 24.0896 3.32211C25.3781 2.8051 26.6667 2.69374 27.7723 3.00395C27.7961 3.01191 27.824 3.01986 27.8478 3.02384C27.991 3.06758 28.1302 3.11929 28.2654 3.17894C28.9495 3.46926 29.55 3.9306 30.0312 4.5709C31.7413 6.84974 32.0396 10.5086 30.7471 13.4596Z" fill="#222F3E"/>
<path d="M25.9752 7.22745C25.494 7.15587 24.9134 7.28313 24.289 7.58936C24.3168 8.52794 24.1856 12.3141 20.5625 14.2628V17.9217C21.2943 17.512 22.7419 16.6968 23.8117 16.0604C24.5236 15.6389 26.882 14.0679 27.3632 11.6658C27.6854 10.0551 27.5581 8.63532 27.0172 7.87173C26.7627 7.50585 26.4207 7.29506 25.9752 7.22745Z" fill="#FE8C00"/>
<path d="M30.027 4.56679C29.16 3.40947 27.9033 2.81689 26.4715 2.81689C25.5091 2.81689 24.4711 3.08336 23.4132 3.62423C20.8838 4.92472 19.2692 7.20753 17.905 9.48239C16.521 11.7891 16.3818 16.1558 16.3818 16.1996V29.1528L19.9373 27.1086V22.9923C19.9373 22.881 19.997 22.7776 20.0924 22.7219C21.6514 21.8231 23.3536 20.8448 24.6262 20.109C27.7959 18.2756 29.3986 16.5376 30.7469 13.4554C32.0394 10.5085 31.7411 6.8496 30.027 4.56679ZM27.9709 11.7891C27.4419 14.4417 24.8966 16.1399 24.1291 16.5933C23.4371 17.0029 21.723 17.9773 20.4066 18.717C20.3589 18.7449 20.3072 18.7568 20.2555 18.7568C20.1998 18.7568 20.1481 18.7409 20.1004 18.7131C20.0049 18.6574 19.9453 18.554 19.9453 18.4466V14.0918C19.9293 13.9168 19.8578 12.835 20.51 10.8743C21.365 8.30917 24.3319 6.35645 26.0699 6.61495C26.6823 6.70643 27.1755 7.00868 27.5294 7.51376C28.1578 8.41655 28.3248 10.0153 27.9709 11.7891Z" fill="#AA076B"/>
<path d="M4.64955 19.3018C4.58194 20.2602 4.60182 22.4436 6.19263 22.7817C6.7176 22.893 7.27836 22.8015 7.86696 22.5152C7.84707 22.2487 7.83117 21.7635 7.92662 21.1232L4.64955 19.3018Z" fill="#EC008C"/>
<path d="M15.7659 29.3121V18.6616C15.5194 19.4013 15.1893 20.1928 14.7717 20.849C14.6723 21.0041 14.5728 21.1632 14.4655 21.3302C13.3797 23.0562 11.8923 25.4226 9.02091 26.9299C8.36868 27.2719 7.75224 27.4946 7.1875 27.6338L15.7659 29.3121Z" fill="#6190E8"/>
<path d="M19.262 1.66786C16.8201 3.46548 15.7304 5.00061 14.6725 7.04082C13.1652 9.94405 12.9266 12.1115 12.6959 14.2034C12.5169 15.8221 12.3459 17.3533 11.638 19.1469C11.3397 19.8946 10.604 21.0718 9.62563 22.0024C8.42855 23.1478 7.19567 23.625 6.06619 23.3864C4.05382 22.9609 3.95042 20.5388 4.022 19.3736L0.645508 21.3263C0.768796 22.2649 1.47273 26.3254 4.51515 27.0532C5.42987 27.2759 6.90535 27.3435 8.73478 26.3811C11.459 24.9494 12.8947 22.6666 13.9407 21.0002C14.0481 20.8331 14.1475 20.6701 14.2469 20.515C15.2611 18.9321 15.7224 16.4107 15.7662 16.1601C15.7781 15.7943 15.9531 11.5349 17.3769 9.16455C18.7887 6.81016 20.463 4.44382 23.1316 3.07573C24.277 2.48713 25.4542 2.18885 26.5558 2.20874L24.1338 0.860525C23.8753 0.777007 21.4414 0.0611427 19.262 1.66786Z" fill="#87DCFF"/>
<path d="M50.2937 8.88965V18.4862C50.2937 21.4093 48.4483 23.4177 45.6247 23.4177C42.8248 23.4177 40.9795 21.4093 40.9795 18.4862V17.8578H43.7594V18.5896C43.7594 20.2958 44.7537 20.7412 45.6247 20.7412C46.8814 20.7412 47.5137 20.1327 47.5137 17.6152V8.88965H50.2937Z" fill="#222F3E"/>
<path d="M52.8311 23.195V8.88965H57.2734C60.0732 8.88965 62.0816 10.735 62.0816 14.0836V14.6524C62.0816 18.0209 60.0732 19.7867 57.2734 19.7867H55.611V23.195H52.8311ZM55.611 11.5662V17.1261H56.991C58.208 17.1261 59.3454 16.5574 59.3454 14.6285V14.0996C59.3454 11.9878 58.1682 11.5622 56.991 11.5622H55.611V11.5662Z" fill="#222F3E"/>
<path d="M63.585 18.8719V16.1317C63.585 13.4313 65.128 11.6655 67.8682 11.6655C70.5249 11.6655 72.1276 13.4313 72.1276 16.1317V18.8719C72.1276 21.6717 70.5249 23.3978 67.8682 23.3978C65.128 23.3978 63.585 21.6717 63.585 18.8719ZM66.2257 15.8096V19.2577C66.2257 20.4746 66.9376 21.0235 67.8682 21.0235C68.7392 21.0235 69.4908 20.4746 69.4908 19.2577V15.8096C69.4908 14.5926 68.7591 14.0637 67.8682 14.0637C66.9336 14.0637 66.2257 14.5886 66.2257 15.8096Z" fill="#222F3E"/>
<path d="M79.4334 14.2863C77.4051 14.1232 76.5938 15.0976 76.5938 16.9231V23.1948H73.957V11.7887H76.4347V13.3318C76.7608 12.0751 78.1409 11.5063 79.4374 11.6694V14.2863H79.4334Z" fill="#222F3E"/>
<path d="M80.5117 11.9916C81.9912 11.9916 82.5002 11.3632 82.5002 9.47412H84.266V11.8086H86.3579V14.1431H84.266V19.0349C84.266 20.3354 84.4689 20.9637 85.7455 20.9637C85.9284 20.9637 86.1511 20.9637 86.3937 20.924V23.2983C86.0477 23.338 85.7455 23.3579 85.4393 23.3579C82.3769 23.3579 81.6253 21.7552 81.6253 18.9752V14.1431H80.5276C80.5316 13.4154 80.5117 12.7234 80.5117 11.9916Z" fill="#222F3E"/>
<path d="M101.331 8.88965V18.4862C101.331 21.4093 99.4855 23.4177 96.6618 23.4177C93.8619 23.4177 92.0166 21.4093 92.0166 18.4862V17.8578H94.7965V18.5896C94.7965 20.2958 95.7908 20.7412 96.6618 20.7412C97.9185 20.7412 98.5509 20.1327 98.5509 17.6152V8.88965H101.331Z" fill="#222F3E"/>
<path d="M103.339 18.8719V16.1317C103.339 13.4313 104.882 11.6655 107.622 11.6655C110.279 11.6655 111.885 13.4313 111.885 16.1317V18.8719C111.885 21.6717 110.283 23.3978 107.622 23.3978C104.878 23.3978 103.339 21.6717 103.339 18.8719ZM105.976 15.8096V19.2577C105.976 20.4746 106.688 21.0235 107.618 21.0235C108.489 21.0235 109.241 20.4746 109.241 19.2577V15.8096C109.241 14.5926 108.509 14.0637 107.618 14.0637C106.688 14.0637 105.976 14.5886 105.976 15.8096Z" fill="#222F3E"/>
<path d="M119.41 11.7891H122.067V18.9915C122.067 21.6919 120.404 23.394 117.783 23.394C115.083 23.394 113.5 21.6879 113.5 18.9915V11.7891H116.137V19.3772C116.137 20.5544 117.032 21.0197 117.779 21.0197C118.428 21.0197 119.402 20.5743 119.402 19.3772V11.7891H119.41Z" fill="#222F3E"/>
<path d="M129.453 14.2863C127.425 14.1232 126.613 15.0976 126.613 16.9231V23.1948H123.977V11.7887H126.454V13.3318C126.78 12.0751 128.16 11.5063 129.457 11.6694V14.2863H129.453Z" fill="#222F3E"/>
<path d="M133.775 23.1949H131.139V11.7887H133.616V13.0892C133.779 12.7233 134.67 11.6694 136.317 11.6694C138.365 11.6694 139.705 12.9461 139.705 15.8493V23.1949H137.049V16.0521C137.049 14.6522 136.44 14.0437 135.406 14.0437C134.332 14.0437 133.783 14.6323 133.783 16.0919V23.1949H133.775Z" fill="#222F3E"/>
<path d="M141.304 19.1585V15.8496C141.304 12.9066 142.684 11.6499 144.672 11.6499C146.335 11.6499 147.21 12.7038 147.373 13.0697V11.7931H149.85V23.1992H147.373V21.9424C147.21 22.3282 146.339 23.3821 144.672 23.3821C142.644 23.3782 141.304 22.0777 141.304 19.1585ZM147.21 18.9557V16.0127C147.21 14.6327 146.522 14.0242 145.587 14.0242C144.613 14.0242 143.964 14.6526 143.964 16.0525V18.9557C143.964 20.3755 144.613 21.0039 145.587 21.0039C146.561 21.0039 147.21 20.3556 147.21 18.9557Z" fill="#222F3E"/>
<path d="M154.739 23.195H152.082V7.87549H154.739V23.195Z" fill="#222F3E"/>
</svg>
