<svg width="138" height="30" viewBox="0 0 138 30" fill="none" xmlns="http://www.w3.org/2000/svg">
<circle cx="16" cy="15" r="12" fill="#222F3E"/>
<path fill-rule="evenodd" clip-rule="evenodd" d="M20.5281 16.0988C21.0093 15.8125 22.6082 14.7507 22.9423 13.0764C23.1652 11.9588 23.0615 10.9525 22.6599 10.376C22.4292 10.0497 22.115 9.85882 21.7212 9.7992C20.405 9.60424 18.6631 11.1354 18.2137 12.4837C17.8238 13.6609 17.8436 14.3609 17.8638 14.492L17.8595 17.6181L18.2056 17.4231C19.4068 16.7472 20.1863 16.3017 20.5281 16.0988ZM21.6536 10.2645C21.92 10.3043 22.1228 10.4315 22.2781 10.6503C22.6082 11.1156 22.6836 11.9905 22.489 12.9847C22.1907 14.4681 20.7308 15.4385 20.2896 15.701C19.6931 16.0551 18.9015 16.5005 18.3209 16.8266V14.6351C20.5281 13.4381 20.6632 11.1752 20.6473 10.4752C21.0174 10.2963 21.3674 10.2247 21.6536 10.2645Z" fill="white"/>
<path fill-rule="evenodd" clip-rule="evenodd" d="M15.497 29.7082C23.5912 29.7082 30.1526 23.1467 30.1526 15.0528C30.1526 6.95897 23.5912 0.397461 15.497 0.397461C7.40311 0.397461 0.841797 6.95897 0.841797 15.0528C0.841797 23.1467 7.40311 29.7082 15.497 29.7082ZM17.4975 6.78847C15.9821 7.90604 15.302 8.86049 14.646 10.1253C13.7112 11.9268 13.5601 13.275 13.4172 14.5755C13.3057 15.5896 13.1982 16.544 12.7531 17.6696C12.4346 18.477 10.9475 20.7001 9.23317 20.3381C8.67662 20.2189 8.28668 19.853 8.08006 19.2444C7.92083 18.7712 7.9049 18.2463 7.92083 17.8684L5.90047 19.0337C5.9762 19.5946 6.42128 22.1041 8.2828 22.5455C8.8475 22.6847 9.75826 22.7243 10.8877 22.1278C12.5779 21.2409 13.4689 19.8212 14.1209 18.7871L14.312 18.485C14.956 17.4787 15.2426 15.8442 15.2542 15.7725H15.2585C15.2624 15.4981 15.3777 12.8812 16.2605 11.4057C17.1433 9.93436 18.1935 8.45094 19.8639 7.59184C20.5238 7.25375 21.212 7.06694 21.8684 7.04694L20.4881 6.2795L20.469 6.27445C20.2383 6.21308 18.799 5.82975 17.4975 6.78847ZM10.323 19.7336C9.97692 19.9008 9.64291 19.9484 9.32871 19.8849C8.39815 19.6899 8.35814 18.4133 8.39426 17.8168L10.3587 18.9104C10.307 19.2724 10.3109 19.5548 10.323 19.7336ZM21.9678 7.51241C22.8708 7.51241 23.6262 7.88235 24.1552 8.58629C25.217 10.0019 25.3999 12.265 24.6006 14.0943C23.7617 16.0073 22.7675 17.0891 20.7988 18.2265L17.971 19.853L17.8556 19.9208V22.6012L15.716 23.8301V15.8205C15.716 15.7966 15.8034 13.0803 16.6586 11.6526C17.5096 10.2406 18.5077 8.82087 20.0787 8.01343C20.7269 7.67942 21.3596 7.51241 21.9678 7.51241ZM10.1121 22.9434C10.4422 22.8519 10.7723 22.7166 11.1024 22.5457C12.9038 21.599 13.8347 20.1197 14.5105 19.0419L14.7016 18.7395C14.9004 18.4294 15.0834 18.0397 15.2504 17.5863V23.9495L10.1121 22.9434Z" fill="white"/>
<path d="M128.751 22.6012V7.28172H131.388V12.2928C131.388 12.2928 132.199 11.056 134.005 11.056C135.87 11.056 137.313 12.0899 137.313 15.1561V22.6051H134.657V16.1704C134.657 14.2813 134.374 13.45 133.014 13.45C131.896 13.45 131.392 14.0388 131.392 15.4983V22.6012H128.751Z" fill="white"/>
<path d="M44.9429 8.29578V17.8925C44.9429 20.8154 43.0977 22.824 40.2738 22.824C37.4739 22.824 35.6287 20.8154 35.6287 17.8925V17.2641H38.4088V17.9958C38.4088 19.702 39.403 20.1474 40.2738 20.1474C41.5306 20.1474 42.1629 19.5388 42.1629 17.0215V8.29578H44.9429Z" fill="white"/>
<path fill-rule="evenodd" clip-rule="evenodd" d="M47.4802 22.6012V8.29578H51.9225C54.7223 8.29578 56.7307 10.1412 56.7307 13.4898V14.0586C56.7307 17.427 54.7223 19.193 51.9225 19.193H50.2602V22.6012H47.4802ZM50.2602 16.5322H51.6401C52.8573 16.5322 53.9945 15.9636 53.9945 14.0347V13.5057C53.9945 11.3939 52.8173 10.9684 51.6401 10.9684H50.2602V16.5322Z" fill="white"/>
<path fill-rule="evenodd" clip-rule="evenodd" d="M58.2341 15.5379V18.2782C58.2341 21.078 59.7771 22.804 62.5175 22.804C65.1741 22.804 66.7769 21.078 66.7769 18.2782V15.5379C66.7769 12.8377 65.1741 11.0717 62.5175 11.0717C59.7771 11.0717 58.2341 12.8377 58.2341 15.5379ZM60.8751 18.664V15.216C60.8751 13.999 61.5827 13.47 62.5175 13.47C63.4081 13.47 64.1402 13.999 64.1402 15.216V18.664C64.1402 19.881 63.3883 20.4298 62.5175 20.4298C61.5866 20.4298 60.8751 19.881 60.8751 18.664Z" fill="white"/>
<path d="M74.0828 13.6927C72.0542 13.5296 71.2429 14.5041 71.2429 16.3294V22.6012H68.6062V11.1991H71.0841V12.7422C71.4099 11.4854 72.7902 10.9168 74.0866 11.0797V13.6927H74.0828Z" fill="white"/>
<path d="M77.149 8.88437C77.149 10.7735 76.6399 11.4019 75.1605 11.4019C75.1605 12.1297 75.1803 12.8218 75.1764 13.5494H76.274V18.3855C76.274 21.1656 77.0255 22.7682 80.0879 22.7682C80.394 22.7682 80.6965 22.7484 81.0426 22.7086V20.3342C80.7998 20.3741 80.5769 20.3741 80.394 20.3741C79.1174 20.3741 78.9146 19.7457 78.9146 18.4452V13.5535H81.0064V11.2189H78.9146V8.88437H77.149Z" fill="white"/>
<path d="M90.2573 14.5876V22.6051H87.4773V8.29578H90.2371L93.4028 16.23L96.5689 8.29578H99.3287V22.6012H96.5487V14.5477L94.3376 19.9247H92.4485L90.2573 14.5876Z" fill="white"/>
<path fill-rule="evenodd" clip-rule="evenodd" d="M101.377 15.2556V18.5646C101.377 21.4877 102.713 22.7842 104.745 22.7882C106.412 22.7882 107.283 21.7342 107.446 21.3485V22.6051H109.923V11.1991H107.446V12.4757C107.283 12.1099 106.408 11.056 104.745 11.056C102.757 11.056 101.377 12.3126 101.377 15.2556ZM107.279 15.4187V18.3617C107.279 19.7616 106.631 20.4098 105.656 20.4098C104.682 20.4098 104.034 19.7816 104.034 18.3617V15.4585C104.034 14.0586 104.682 13.4302 105.656 13.4302C106.591 13.4302 107.279 14.0388 107.279 15.4187Z" fill="white"/>
<path d="M111.439 11.4019C112.918 11.4019 113.427 10.7735 113.427 8.88437H115.193V11.2189H117.285V13.5535H115.193V18.4452C115.193 19.7457 115.396 20.3741 116.673 20.3741C116.856 20.3741 117.078 20.3741 117.321 20.3342V22.7086L117.217 22.7203L117.044 22.737L116.938 22.7457L116.851 22.7519C116.686 22.7628 116.527 22.7682 116.366 22.7682C113.3 22.7682 112.552 21.1656 112.552 18.3855V13.5494H111.459C111.459 12.8218 111.439 12.1297 111.439 11.4019Z" fill="white"/>
<path d="M122.761 22.804C125.562 22.804 127.022 21.0654 127.025 18.1867H124.388C124.388 19.7258 123.72 20.4177 122.765 20.4177C121.672 20.4177 121.123 19.6264 121.123 18.123V15.4426C121.123 14.0029 121.791 13.4739 122.765 13.4739C123.78 13.4739 124.388 14.1421 124.388 15.7447H127.025C127.025 12.782 125.581 11.056 122.761 11.056C120.041 11.056 118.478 12.8018 118.478 15.5818V18.3418C118.478 21.078 120.041 22.804 122.761 22.804Z" fill="white"/>
</svg>
