<svg width="13" height="31" viewBox="0 0 13 31" fill="none" xmlns="http://www.w3.org/2000/svg">
<path d="M3.78295 9.30998V6.77498H9.17795V9.30998H3.78295ZM9.17795 2.52398V4.90298H3.78295V2.52398H9.17795ZM1.83295 0.612976V12.079H3.78295V11.221H9.17795V12.079H11.2189V0.612976H1.83295Z" fill="#FFB7C5"/>
<path d="M7.50095 26.244V24.008C7.96895 24.814 8.48895 25.568 9.07395 26.244H7.50095ZM3.96495 26.244C4.52395 25.581 5.03095 24.84 5.48595 24.047V26.244H3.96495ZM12.3109 22.214V20.29H7.50095V17.885H5.48595V20.29H0.714945V22.214H4.39395C3.43195 24.099 1.92395 25.841 0.168945 26.829C0.597945 27.206 1.22195 27.934 1.54695 28.402C2.22295 27.96 2.85995 27.427 3.43195 26.829V28.168H5.48595V30.235H7.50095V28.168H9.46395V26.673C10.0749 27.323 10.7379 27.882 11.4529 28.35C11.7779 27.817 12.4539 27.024 12.9219 26.634C11.1539 25.672 9.60695 24.008 8.61895 22.214H12.3109Z" fill="#FFB7C5"/>
</svg>
