<svg width="240" height="70" viewBox="0 0 240 70" fill="none" xmlns="http://www.w3.org/2000/svg">
<g clip-path="url(#clip0)">
<path d="M59.5045 27.925V7.40295C59.5045 3.27979 56.131 0 52.1015 0H10.4951L59.5045 49.0094V38.4203L29.4242 8.43373H48.0721C49.7588 8.43373 51.0708 9.74565 51.0708 11.4324V19.585L59.5045 27.925Z" fill="#FFB7C5"/>
<path d="M0 7.40293V31.5796L30.0803 61.66H11.4324C9.74565 61.66 8.43373 60.348 8.43373 58.6613V50.5087L0 42.075V62.597C0 66.7202 3.37349 70 7.40295 70H48.9157L8.43373 29.5181V18.929L57.3494 67.8447C58.6613 66.5328 59.5047 64.6586 59.5047 62.597V59.5047L2.15529 2.15527C0.843373 3.5609 0 5.34135 0 7.40293Z" fill="#FFB7C5"/>
<path d="M78.9959 26.7068C78.9959 19.0228 84.431 14.4311 92.5836 14.4311C100.642 14.4311 106.171 19.8661 106.171 28.4873H98.1123C98.1123 23.9893 95.9571 21.9277 92.4899 21.9277C89.0227 21.9277 87.0548 23.6145 87.0548 26.7068C87.0548 35.0469 106.734 30.0803 106.734 45.0736C106.734 53.0388 101.111 57.8179 92.6773 57.8179C84.2435 57.8179 78.5273 52.2892 78.5273 43.2932H86.5862C86.5862 48.166 89.1164 50.2276 92.6773 50.2276C96.1445 50.2276 98.5809 48.6345 98.5809 45.1673C98.5809 37.2021 78.9959 41.6064 78.9959 26.7068Z" fill="#8395A7"/>
<path d="M114.23 57.162V15.1807H127.256C135.502 15.1807 141.312 20.6158 141.312 30.4552V32.1419C141.312 41.9813 135.409 47.2289 127.256 47.2289H122.383V57.162H114.23ZM122.383 23.0522V39.3574H126.413C129.973 39.3574 133.347 37.6707 133.347 32.0482V30.4552C133.347 24.2704 129.88 23.0522 126.413 23.0522H122.383Z" fill="#8395A7"/>
<path d="M173.079 46.3855V46.6667C173.079 52.7577 168.393 57.7242 160.615 57.7242C152.65 57.7242 148.059 52.664 148.059 44.6051V36.4525C148.059 28.2999 152.65 23.2396 160.615 23.2396C168.487 23.2396 173.079 27.925 173.079 36.1713V42.7309H155.743V46.3855C155.743 49.3842 158.085 51.3521 160.522 51.3521C163.146 51.3521 165.301 49.8527 165.301 47.1352V46.3855H173.079ZM155.836 37.2958H165.395V35.6091C165.395 31.1111 163.52 29.7055 160.615 29.7055C157.898 29.7055 155.836 31.2985 155.836 34.8594V37.2958Z" fill="#8395A7"/>
<path d="M179.826 45.2611V35.6091C179.826 26.988 183.856 23.3333 189.666 23.3333C194.538 23.3333 197.068 26.4257 197.537 27.4565V23.7082H204.753V57.162H197.537V53.4137C197.068 54.5382 194.538 57.6305 189.666 57.6305C183.762 57.6305 179.826 53.8822 179.826 45.2611ZM197.068 44.6988V36.0777C197.068 32.0482 195.007 30.2677 192.289 30.2677C189.478 30.2677 187.51 32.1419 187.51 36.1714V44.6988C187.51 48.822 189.384 50.6961 192.289 50.6961C195.194 50.6961 197.068 48.822 197.068 44.6988Z" fill="#8395A7"/>
<path d="M239.049 57.162H230.24C227.991 52.664 225.742 48.2597 223.493 43.7617H220.87V57.162H213.092V12.1821H220.87V37.2021H223.493L230.147 23.6145H238.955L229.866 40.2945C232.958 45.917 235.957 51.5395 239.049 57.162Z" fill="#8395A7"/>
</g>
<defs>
<clipPath id="clip0">
<rect width="239.05" height="70" fill="white"/>
</clipPath>
</defs>
</svg>
