<svg width="173" height="22" viewBox="0 0 173 22" fill="none" xmlns="http://www.w3.org/2000/svg">
<path d="M6.76336 3.59615V12.1468C6.76336 14.6125 6.14692 15.2091 4.91405 15.2091C4.05899 15.2091 3.08461 14.7716 3.08461 13.1012V12.3854H0.360352V13.0018C0.360352 15.8653 2.1699 17.8339 4.91405 17.8339C7.67808 17.8339 9.48763 15.8653 9.48763 13.0018V3.59615H6.76336Z" fill="#222F3E"/>
<path d="M14.8953 17.6152V14.2745H16.5259C19.27 14.2745 21.2387 12.5445 21.2387 9.24353V8.68674C21.2387 5.4057 19.27 3.59615 16.5259 3.59615H12.171V17.6152H14.8953ZM16.2475 6.22099C17.4008 6.22099 18.5542 6.63857 18.5542 8.70663V9.22364C18.5542 11.1127 17.4406 11.6695 16.2475 11.6695H14.8953V6.22099H16.2475Z" fill="#222F3E"/>
<path d="M27.0981 17.814C29.703 17.814 31.274 16.1238 31.274 13.3796V10.6951C31.274 8.05042 29.703 6.32041 27.0981 6.32041C24.4136 6.32041 22.9023 8.05042 22.9023 10.6951V13.3796C22.9023 16.1238 24.4136 17.814 27.0981 17.814ZM27.0981 8.66686C27.973 8.66686 28.6889 9.18387 28.6889 10.377V13.7575C28.6889 14.9506 27.9531 15.4875 27.0981 15.4875C26.1834 15.4875 25.4874 14.9506 25.4874 13.7575V10.377C25.4874 9.18387 26.1834 8.66686 27.0981 8.66686Z" fill="#222F3E"/>
<path d="M38.6338 6.32041C37.3611 6.16133 36.0089 6.71812 35.6908 7.95099V6.43972H33.2648V17.6152H35.8499V11.4707C35.8499 9.681 36.6453 8.72651 38.6338 8.88559V6.32041Z" fill="#222F3E"/>
<path d="M39.8973 8.7464H40.9711V13.4791C40.9711 16.2033 41.7068 17.7742 44.7095 17.7742C45.0077 17.7742 45.306 17.7544 45.6441 17.7146V15.388C45.4055 15.4278 45.1867 15.4278 45.0077 15.4278C43.755 15.4278 43.5561 14.8114 43.5561 13.5387V8.7464H45.6043V6.45961H43.5561V4.17282H41.8261C41.8261 6.02214 41.329 6.63857 39.8774 6.63857C39.8774 7.35444 39.8973 8.03053 39.8973 8.7464Z" fill="#222F3E"/>
<path d="M70.2302 4.35178C69.8921 3.41718 69.0768 2.12465 68.182 1.19005L66.3526 2.02522C67.1877 2.9996 67.9633 4.39156 68.2615 5.30627L70.2302 4.35178ZM61.6597 3.01948H58.0406V0.772461H55.6345V3.01948H51.9955V5.16707H61.6597V3.01948ZM53.0693 12.6041C52.771 14.1949 52.2142 15.7857 51.4586 16.8396C51.9557 17.1379 52.8307 17.7742 53.2085 18.1521C54.0834 16.8993 54.7993 14.9506 55.2169 13.0615L53.0693 12.6041ZM55.0578 8.2095H58.5377V9.91962H55.0578V8.2095ZM60.8245 11.8684V6.28064H52.9102V11.8684H55.8135V16.8993C55.8135 17.118 55.7339 17.1777 55.4953 17.1777C55.2766 17.1777 54.5408 17.1777 53.8846 17.1578C54.163 17.7544 54.501 18.6492 54.5806 19.2855C55.7339 19.2855 56.5691 19.2656 57.2253 18.9077C57.9014 18.5498 58.0804 17.9532 58.0804 16.959V11.8684H60.8245ZM67.8638 16.8993C67.7445 16.8993 67.6252 16.8595 67.5457 16.7601C67.486 16.7004 67.4661 16.5613 67.4661 16.4618V8.76628H65.9151C65.935 8.48789 65.9549 8.2095 65.9748 7.93111H70.2302V5.68409H66.0145V0.772461H63.7476V5.68409H61.5006V7.93111H63.688C63.5488 10.3969 63.0715 13.2802 61.5603 15.7261C61.3216 14.7915 60.8245 13.4393 60.3075 12.4251L58.4582 13.0615C58.9354 14.1353 59.4524 15.6068 59.6314 16.5414L61.4807 15.8454C61.0035 16.6209 60.4069 17.3368 59.6911 17.993C60.2876 18.2913 61.2421 18.9475 61.6995 19.3849C63.6482 17.5157 64.722 15.1295 65.3185 12.6837V16.6209C65.3185 17.8936 65.418 18.2714 65.7759 18.6293C66.1139 18.9872 66.6707 19.1463 67.2076 19.1463H68.361C68.8183 19.1463 69.2757 19.027 69.574 18.8083C69.912 18.5498 70.1307 18.2515 70.2501 17.7345C70.3893 17.2572 70.4688 16.084 70.5086 15.0102C69.9518 14.8312 69.216 14.4534 68.8183 14.0756C68.8382 15.0699 68.7984 15.9448 68.7587 16.3226C68.7388 16.5215 68.6592 16.7005 68.5797 16.78C68.5201 16.8595 68.361 16.8993 68.2417 16.8993H67.8638Z" fill="#222F3E"/>
<path d="M77.8859 3.01948C77.0309 2.4627 75.3009 1.58775 74.1873 1.03097L72.855 2.74109C74.0083 3.3973 75.6986 4.3319 76.4741 4.92845L77.8859 3.01948ZM76.9315 8.38847C76.0565 7.85157 74.2867 6.99651 73.1931 6.45961L71.9204 8.2095C73.0936 8.84582 74.8038 9.78042 75.619 10.3571L76.9315 8.38847ZM74.1873 19.1264C75.4003 17.1976 76.6531 14.9307 77.707 12.8427L75.977 11.2519C74.7839 13.5586 73.2527 16.0244 72.1988 17.5157L74.1873 19.1264ZM87.0928 16.3823H81.1073V13.4592H87.0928V16.3823ZM90.334 8.80605V6.53915H85.2832V3.81489C86.8541 3.51661 88.3256 3.13879 89.6182 2.64166L87.7887 0.772461C85.6014 1.64741 81.8829 2.30362 78.5024 2.64166C78.7609 3.17856 79.0791 4.09328 79.1586 4.66995C80.4114 4.55064 81.7238 4.41144 83.0362 4.21259V6.53915H77.7468V8.80605H83.0362V11.3116H78.9796V19.3452H81.1073V18.5299H87.0928V19.2457H89.3398V11.3116H85.2832V8.80605H90.334Z" fill="#222F3E"/>
<path d="M101.444 6.99651L102.856 12.4848H99.9729L101.444 6.99651ZM104.169 17.6152H106.933L102.916 3.59615H99.953L95.8765 17.6152H98.6406L99.3962 14.8511H103.433L104.169 17.6152Z" fill="#222F3E"/>
<path d="M113.666 13.2802C113.666 14.7915 113.009 15.4676 112.075 15.4676C111.001 15.4676 110.464 14.6921 110.464 13.2206V10.5957C110.464 9.18387 111.12 8.66686 112.075 8.66686C113.069 8.66686 113.666 9.32307 113.666 10.894H116.251C116.251 7.99076 114.839 6.30053 112.075 6.30053C109.41 6.30053 107.879 8.01065 107.879 10.7349V13.4393C107.879 16.1238 109.41 17.814 112.075 17.814C114.819 17.814 116.251 16.1039 116.251 13.2802H113.666Z" fill="#222F3E"/>
<path d="M121.147 17.7941C122.777 17.7941 123.632 16.7601 123.791 16.3823V17.6152H126.217V6.43972H123.791V7.69249C123.632 7.33455 122.777 6.30053 121.147 6.30053C119.198 6.30053 117.846 7.53341 117.846 10.4167V13.658C117.846 16.5215 119.158 17.7941 121.147 17.7941ZM122.042 15.4676C121.087 15.4676 120.451 14.8511 120.451 13.4592V10.6156C120.451 9.24353 121.087 8.62709 122.042 8.62709C122.956 8.62709 123.632 9.22364 123.632 10.5758V13.4592C123.632 14.8312 122.996 15.4676 122.042 15.4676Z" fill="#222F3E"/>
<path d="M131.522 17.7941C133.132 17.7941 134.007 16.78 134.166 16.4022V17.6152H136.592V2.60189H133.967V7.45386C133.967 7.45386 133.252 6.32041 131.522 6.32041C129.513 6.32041 128.201 7.57318 128.201 10.4167V13.6779C128.201 16.5414 129.513 17.7941 131.522 17.7941ZM132.416 15.4875C131.462 15.4875 130.806 14.8511 130.806 13.4791V10.6355C130.806 9.2833 131.442 8.64697 132.416 8.64697C133.331 8.64697 134.007 9.24353 134.007 10.5758V13.4791C134.007 14.8511 133.351 15.4875 132.416 15.4875Z" fill="#222F3E"/>
<path d="M144.342 14.0358V14.2745C144.342 15.1892 143.626 15.6863 142.752 15.6863C141.936 15.6863 141.141 15.0102 141.141 14.016V12.803H146.927V10.6156C146.927 7.87145 145.376 6.30053 142.752 6.30053C140.087 6.30053 138.556 7.99076 138.556 10.715V13.4393C138.556 16.1238 140.087 17.814 142.752 17.814C145.376 17.814 146.927 16.1636 146.927 14.1154V14.0358H144.342ZM141.141 10.1582C141.141 8.96513 141.837 8.44812 142.752 8.44812C143.726 8.44812 144.342 8.94525 144.342 10.4366V10.9735H141.141V10.1582Z" fill="#222F3E"/>
<path d="M151.406 10.0986C151.406 9.02479 152.042 8.6072 152.718 8.6072C153.494 8.6072 154.05 9.04468 154.05 10.1384V17.6152H156.655V10.0986C156.655 9.04467 157.292 8.6072 157.968 8.6072C158.684 8.6072 159.28 9.02479 159.28 10.1384V17.6152H161.885V10.2378C161.885 7.53341 160.792 6.32041 158.922 6.32041C157.411 6.32041 156.516 7.19536 156.178 7.85157C155.641 6.79766 154.687 6.32041 153.553 6.32041C152.042 6.32041 151.386 7.29478 151.247 7.59306V6.43972H148.821V17.6152H151.406V10.0986Z" fill="#222F3E"/>
<path d="M165.225 21.4331H167.869C169.4 16.4419 170.951 11.4508 172.483 6.43972H169.719L167.75 13.6779L165.781 6.43972H162.997L166.418 17.5953L165.225 21.4331Z" fill="#222F3E"/>
</svg>
