<svg width="68" height="20" viewBox="0 0 68 20" fill="none" xmlns="http://www.w3.org/2000/svg">
<path d="M18.8419 4.54466C18.5038 3.61005 17.6885 2.31752 16.7937 1.38292L14.9643 2.2181C15.7994 3.19247 16.575 4.58443 16.8732 5.49914L18.8419 4.54466ZM10.2714 3.21235H6.65229V0.965332H4.24619V3.21235H0.607211V5.35995H10.2714V3.21235ZM1.68101 12.797C1.38273 14.3878 0.825947 15.9786 0.0703125 17.0325C0.567441 17.3308 1.44239 17.9671 1.8202 18.3449C2.69515 17.0922 3.41101 15.1434 3.8286 13.2543L1.68101 12.797ZM3.66952 8.40237H7.14942V10.1125H3.66952V8.40237ZM9.43621 12.0612V6.47351H1.52193V12.0612H4.42516V17.0922C4.42516 17.3109 4.34562 17.3706 4.10699 17.3706C3.88826 17.3706 3.15251 17.3706 2.4963 17.3507C2.77469 17.9472 3.11274 18.8421 3.19228 19.4784C4.34562 19.4784 5.18079 19.4585 5.837 19.1006C6.51309 18.7426 6.69206 18.1461 6.69206 17.1518V12.0612H9.43621ZM16.4755 17.0922C16.3562 17.0922 16.2369 17.0524 16.1574 16.953C16.0977 16.8933 16.0778 16.7541 16.0778 16.6547V8.95915H14.5268C14.5467 8.68076 14.5666 8.40237 14.5865 8.12398H18.8419V5.87696H14.6262V0.965332H12.3593V5.87696H10.1123V8.12398H12.2997C12.1605 10.5897 11.6832 13.4731 10.172 15.9189C9.93334 14.9843 9.43621 13.6322 8.91919 12.618L7.06988 13.2543C7.54712 14.3281 8.06413 15.7996 8.2431 16.7342L10.0924 16.0383C9.61517 16.8138 9.01862 17.5296 8.30276 18.1859C8.89931 18.4841 9.8538 19.1403 10.3112 19.5778C12.2599 17.7086 13.3337 15.3224 13.9302 12.8765V16.8138C13.9302 18.0864 14.0297 18.4642 14.3876 18.8222C14.7257 19.1801 15.2824 19.3392 15.8193 19.3392H16.9727C17.43 19.3392 17.8874 19.2199 18.1857 19.0011C18.5237 18.7426 18.7424 18.4444 18.8618 17.9273C19.001 17.4501 19.0805 16.2769 19.1203 15.2031C18.5635 15.0241 17.8277 14.6463 17.43 14.2685C17.4499 15.2627 17.4101 16.1377 17.3704 16.5155C17.3505 16.7144 17.2709 16.8933 17.1914 16.9729C17.1318 17.0524 16.9727 17.0922 16.8534 17.0922H16.4755Z" fill="#222F3E"/>
<path d="M26.4976 3.21235C25.6426 2.65557 23.9126 1.78062 22.799 1.22384L21.4667 2.93396C22.62 3.59017 24.3103 4.52477 25.0858 5.12132L26.4976 3.21235ZM25.5432 8.58134C24.6682 8.04444 22.8984 7.18938 21.8048 6.65248L20.5321 8.40237C21.7053 9.0387 23.4155 9.9733 24.2307 10.55L25.5432 8.58134ZM22.799 19.3193C24.012 17.3904 25.2648 15.1235 26.3187 13.0356L24.5887 11.4448C23.3956 13.7515 21.8644 16.2172 20.8105 17.7086L22.799 19.3193ZM35.7045 16.5752H29.719V13.652H35.7045V16.5752ZM38.9457 8.99893V6.73202H33.8949V4.00776C35.4658 3.70948 36.9373 3.33166 38.2299 2.83454L36.4004 0.965332C34.2131 1.84028 30.4946 2.49649 27.1141 2.83454C27.3726 3.37143 27.6908 4.28615 27.7703 4.86282C29.0231 4.74351 30.3355 4.60431 31.6479 4.40546V6.73202H26.3585V8.99893H31.6479V11.5045H27.5913V19.538H29.719V18.7228H35.7045V19.4386H37.9515V11.5045H33.8949V8.99893H38.9457Z" fill="#222F3E"/>
<path d="M45.0848 7.78593C45.7012 7.78593 46.2381 7.74616 46.6955 7.58708V17.808H49.4198V3.78902H46.9142C46.9142 4.84293 46.5563 5.14121 45.0848 5.14121V7.78593Z" fill="#222F3E"/>
<path d="M56.4857 18.0069C59.2298 18.0069 61.1587 16.0184 61.1587 13.1748V8.40237C61.1587 5.53891 59.2298 3.53051 56.4857 3.53051C53.7415 3.53051 51.8325 5.53891 51.8325 8.40237V13.1748C51.8325 16.0184 53.7415 18.0069 56.4857 18.0069ZM56.4857 15.3821C55.4516 15.3821 54.5568 14.8253 54.5568 13.0356V8.52168C54.5568 6.73202 55.4318 6.17524 56.4857 6.17524C57.5396 6.17524 58.4344 6.73202 58.4344 8.52168V13.0555C58.4344 14.8253 57.5197 15.3821 56.4857 15.3821Z" fill="#222F3E"/>
<path d="M62.8432 7.78593C63.4596 7.78593 63.9965 7.74616 64.4538 7.58708V17.808H67.1781V3.78902H64.6726C64.6726 4.84293 64.3147 5.14121 62.8432 5.14121V7.78593Z" fill="#222F3E"/>
</svg>
